<?xml version="1.0" encoding="UTF-8" standalone="no"?>
<svg
   xmlns:dc="http://purl.org/dc/elements/1.1/"
   xmlns:cc="http://creativecommons.org/ns#"
   xmlns:rdf="http://www.w3.org/1999/02/22-rdf-syntax-ns#"
   xmlns:svg="http://www.w3.org/2000/svg"
   xmlns="http://www.w3.org/2000/svg"
   xmlns:sodipodi="http://sodipodi.sourceforge.net/DTD/sodipodi-0.dtd"
   xmlns:inkscape="http://www.inkscape.org/namespaces/inkscape"
   width="64"
   height="64"
   viewBox="0 0 64 64"
   fill="none"
   version="1.1"
   id="svg6"
   sodipodi:docname="gear-button.svg"
   inkscape:version="1.0.2-2 (e86c870879, 2021-01-15)">
  <metadata
     id="metadata12">
    <rdf:RDF>
      <cc:Work
         rdf:about="">
        <dc:format>image/svg+xml</dc:format>
        <dc:type
           rdf:resource="http://purl.org/dc/dcmitype/StillImage" />
      </cc:Work>
    </rdf:RDF>
  </metadata>
  <defs
     id="defs10" />
  <sodipodi:namedview
     pagecolor="#ffffff"
     bordercolor="#666666"
     borderopacity="1"
     objecttolerance="10"
     gridtolerance="10"
     guidetolerance="10"
     inkscape:pageopacity="0"
     inkscape:pageshadow="2"
     inkscape:window-width="1920"
     inkscape:window-height="1027"
     id="namedview8"
     showgrid="false"
     inkscape:zoom="6.859375"
     inkscape:cx="30.396355"
     inkscape:cy="32"
     inkscape:window-x="1358"
     inkscape:window-y="-8"
     inkscape:window-maximized="1"
     inkscape:current-layer="svg6" />
  <circle
     cx="32"
     cy="32"
     r="31.5"
     stroke="#F2F2F2"
     id="circle2" />
  <path
     d="m 21.958066,24.503425 c -3.753179,0 -6.806545,2.96594 -6.806545,6.611649 0,3.645714 3.053366,6.611653 6.806545,6.611653 3.753179,0 6.806545,-2.965939 6.806545,-6.611653 0,-3.645709 -3.053366,-6.611649 -6.806545,-6.611649 z m 0,11.754045 c -2.919049,0 -5.293978,-2.306829 -5.293978,-5.142396 0,-2.835562 2.374929,-5.142392 5.293978,-5.142392 2.919049,0 5.293978,2.30683 5.293978,5.142392 0,2.835567 -2.374929,5.142396 -5.293978,5.142396 z"
     id="path2"
     style="fill:#f2f2f2;fill-opacity:1;stroke-width:0.0993836" />
  <path
     d="m 32.190068,37.244712 -0.862669,-0.837965 c 0.49229,-0.818571 0.864584,-1.688666 1.111738,-2.598035 h 1.216102 c 0.41777,0 0.756282,-0.328918 0.756282,-0.734626 v -3.918019 c 0,-0.405708 -0.338512,-0.734627 -0.756282,-0.734627 h -1.216102 c -0.247154,-0.909471 -0.61955,-1.779463 -1.111738,-2.598034 l 0.862669,-0.837966 c 0.295353,-0.286897 0.295353,-0.752065 0,-1.038861 L 29.337973,21.17615 c -0.295455,-0.286898 -0.774233,-0.286898 -1.069587,0 l -0.862563,0.837867 C 26.563221,21.53592 25.667481,21.174288 24.731202,20.934114 v -1.181282 c 0,-0.40571 -0.338512,-0.734628 -0.756282,-0.734628 h -4.033506 c -0.41777,0 -0.756286,0.328918 -0.756286,0.734628 v 1.181282 c -0.936276,0.240174 -1.832016,0.601806 -2.674717,1.079903 L 15.647847,21.17615 c -0.141882,-0.137817 -0.334177,-0.215198 -0.534845,-0.215198 -0.200666,0 -0.392863,0.07738 -0.534842,0.215198 l -2.852095,2.770331 c -0.295354,0.286894 -0.295354,0.752062 0,1.038862 l 0.862669,0.837966 c -0.492291,0.818473 -0.864584,1.688563 -1.111739,2.598034 h -1.216102 c -0.4177705,0 -0.7562818,0.328918 -0.7562818,0.734627 v 3.918014 c 0,0.405712 0.3385113,0.734631 0.7562818,0.734631 h 1.216102 c 0.247155,0.909466 0.61955,1.779561 1.111739,2.598034 l -0.862669,0.837965 c -0.295354,0.286898 -0.295354,0.752063 0,1.038862 l 2.851994,2.770429 c 0.141878,0.137815 0.334176,0.215197 0.534841,0.215197 0.200669,0 0.392866,-0.07738 0.534846,-0.215197 l 0.862564,-0.837868 c 0.842701,0.478098 1.738441,0.839729 2.674718,1.079902 v 1.181284 c 0,0.405709 0.338515,0.734627 0.756285,0.734627 h 4.033506 c 0.41777,0 0.756282,-0.328918 0.756282,-0.734627 v -1.181284 c 0.93628,-0.240173 1.832019,-0.601804 2.67462,-1.079902 l 0.862564,0.837868 c 0.295455,0.286897 0.774233,0.286897 1.069587,0 l 2.852095,-2.770429 c 0.295354,-0.286698 0.295354,-0.751866 1.01e-4,-1.038764 z M 31.098094,32.92794 c -0.236866,1.133582 -0.69457,2.203592 -1.3604,3.180354 -0.198649,0.291303 -0.158517,0.678107 0.09569,0.925041 l 0.752351,0.730712 -1.782609,1.731566 -0.75225,-0.730709 c -0.254515,-0.24703 -0.65262,-0.285819 -0.952313,-0.09305 -1.005552,0.646765 -2.107104,1.091461 -3.274199,1.321546 -0.352529,0.06954 -0.605832,0.370546 -0.605832,0.719934 v 1.029262 h -2.520943 v -1.029262 c 0,-0.349388 -0.253403,-0.650488 -0.605831,-0.719934 -1.167096,-0.230183 -2.268747,-0.674781 -3.274301,-1.321546 -0.299792,-0.192766 -0.697999,-0.153977 -0.952312,0.09305 l -0.75225,0.730709 -1.782508,-1.731469 0.752351,-0.730708 c 0.254212,-0.246933 0.294344,-0.633839 0.0957,-0.925044 -0.665829,-0.976665 -1.123635,-2.046772 -1.360602,-3.180452 -0.0715,-0.342335 -0.381471,-0.588388 -0.741158,-0.588388 h -1.0595 v -2.448757 h 1.059601 c 0.359586,0 0.669663,-0.246053 0.741158,-0.588388 0.237068,-1.133679 0.694873,-2.203787 1.360602,-3.180447 0.198649,-0.291307 0.158517,-0.678111 -0.09569,-0.925045 l -0.752351,-0.730709 1.782509,-1.731472 0.752249,0.730712 c 0.254313,0.247032 0.65262,0.28582 0.952313,0.09305 1.005553,-0.646769 2.107103,-1.091464 3.2743,-1.321546 C 20.444297,22.1675 20.6977,21.8664 20.6977,21.517013 v -1.029557 h 2.520943 v 1.029264 c 0,0.349388 0.253304,0.650391 0.605832,0.719933 1.167095,0.230184 2.268646,0.674782 3.274199,1.321547 0.299793,0.192766 0.698,0.153977 0.952313,-0.09305 l 0.75225,-0.730709 1.782609,1.731566 -0.752351,0.730709 c -0.254211,0.246933 -0.294347,0.633839 -0.0957,0.925044 0.665931,0.976762 1.123635,2.046772 1.3604,3.18035 0.07159,0.342436 0.381472,0.588489 0.741259,0.588489 h 1.0595 v 2.448757 h -1.059702 c -0.359686,9.8e-5 -0.669562,0.246151 -0.741158,0.588584 z"
     id="path4"
     style="fill:#f2f2f2;fill-opacity:1;stroke-width:0.0993836" />
  <path
     d="m 44.94906,39.391882 h -0.909656 c -0.132806,-0.950413 -0.518611,-1.823346 -1.090358,-2.55249 L 43.5936,36.213198 c 0.295354,-0.286897 0.295354,-0.752062 -1.01e-4,-1.038862 -0.295253,-0.286996 -0.774132,-0.286898 -1.069486,0 l -0.644554,0.626097 c -0.750637,-0.555379 -1.649403,-0.930134 -2.62773,-1.059137 v -0.883607 c 0,-0.405713 -0.338512,-0.734631 -0.756281,-0.734631 -0.41777,0 -0.756282,0.328918 -0.756282,0.734631 v 0.883607 c -0.978428,0.129003 -1.877096,0.503758 -2.62773,1.059137 l -0.644554,-0.626097 c -0.295354,-0.286898 -0.774233,-0.286996 -1.069486,0 -0.295454,0.286897 -0.295454,0.751965 -1.01e-4,1.038862 l 0.644554,0.626194 c -0.571751,0.729144 -0.957552,1.602077 -1.090358,2.55249 h -0.909656 c -0.41777,0 -0.756281,0.328918 -0.756281,0.73463 0,0.405709 0.338511,0.734627 0.756281,0.734627 h 0.909656 c 0.132806,0.950412 0.518607,1.823345 1.090358,2.552489 l -0.644554,0.626195 c -0.295353,0.286898 -0.295353,0.752066 1.01e-4,1.038862 0.147627,0.143497 0.341234,0.215197 0.534741,0.215197 0.193511,0 0.387118,-0.0717 0.534846,-0.215197 l 0.644554,-0.626097 c 0.750634,0.555378 1.649399,0.930138 2.62773,1.059137 v 0.883611 c 0,0.405709 0.338512,0.734627 0.756281,0.734627 0.41777,0 0.756282,-0.328918 0.756282,-0.734627 v -0.883611 c 0.978428,-0.128999 1.877093,-0.503759 2.627731,-1.059137 l 0.644553,0.626097 c 0.147728,0.143497 0.341235,0.215197 0.534842,0.215197 0.193511,0 0.387119,-0.0717 0.534745,-0.215197 0.295455,-0.286894 0.295455,-0.751964 1.01e-4,-1.038862 l -0.644558,-0.626195 c 0.571751,-0.729144 0.957556,-1.602077 1.090362,-2.552489 h 0.909656 c 0.417769,0 0.756281,-0.328918 0.756281,-0.734627 0,-0.405712 -0.338713,-0.73463 -0.756483,-0.73463 z m -6.453612,4.701617 c -2.251907,0 -4.083927,-1.77956 -4.083927,-3.966987 0,-2.18743 1.83202,-3.966991 4.083927,-3.966991 2.251907,0 4.083926,1.779561 4.083926,3.966991 0,2.187427 -1.832019,3.966987 -4.083926,3.966987 z"
     id="path6"
     style="fill:#f2f2f2;fill-opacity:1;stroke-width:0.0993836" />
  <path
     d="m 21.958066,27.637837 c -1.973899,0 -3.579736,1.559861 -3.579736,3.477237 0,1.91738 1.605837,3.477242 3.579736,3.477242 1.973898,0 3.579737,-1.559862 3.579737,-3.477242 0,-1.917376 -1.605839,-3.477237 -3.579737,-3.477237 z m 0,5.485221 c -1.139869,0 -2.067174,-0.900751 -2.067174,-2.007984 0,-1.107229 0.927305,-2.007979 2.067174,-2.007979 1.139869,0 2.067174,0.90075 2.067174,2.007979 0,1.107233 -0.927305,2.007984 -2.067174,2.007984 z"
     id="path8"
     style="fill:#f2f2f2;fill-opacity:1;stroke-width:0.0993836" />
  <path
     d="m 38.495448,37.824675 c -1.306655,0 -2.369686,1.032593 -2.369686,2.301837 0,1.269241 1.063031,2.301833 2.369686,2.301833 1.306654,0 2.369685,-1.032592 2.369685,-2.301833 0,-1.269244 -1.063031,-2.301837 -2.369685,-2.301837 z m 0,3.134413 c -0.472626,0 -0.857123,-0.373483 -0.857123,-0.832576 0,-0.459093 0.384497,-0.832579 0.857123,-0.832579 0.472626,0 0.857118,0.373486 0.857118,0.832579 0,0.459093 -0.384492,0.832576 -0.857118,0.832576 z"
     id="path10"
     style="fill:#f2f2f2;fill-opacity:1;stroke-width:0.0993836" />
  <path
     d="m 47.369166,23.719823 c -2.196247,0 -3.98309,1.735681 -3.98309,3.869038 0,2.133361 1.786843,3.869042 3.98309,3.869042 2.196243,0 3.983086,-1.735681 3.983086,-3.869042 0,-2.133357 -1.786843,-3.869038 -3.983086,-3.869038 z m 0,6.268823 c -1.362319,0 -2.470527,-1.076572 -2.470527,-2.399785 0,-1.323209 1.108208,-2.399781 2.470527,-2.399781 1.362314,0 2.470523,1.076572 2.470523,2.399781 0,1.323213 -1.108209,2.399785 -2.470523,2.399785 z"
     id="path12"
     style="fill:#f2f2f2;fill-opacity:1;stroke-width:0.0993836" />
  <path
     d="m 54.420138,26.095217 -0.0079,-2.92e-4 c -0.185342,-0.825235 -0.521131,-1.596006 -0.977624,-2.28499 l 0.0076,-0.0079 c 0.587277,-0.583294 0.583143,-1.521953 -0.0122,-2.100348 -0.290514,-0.282099 -0.676622,-0.437545 -1.087334,-0.437545 -1e-4,0 0,0 -1e-4,0 -0.404964,0 -0.78603,0.151037 -1.07493,0.425691 l -0.0082,0.0073 C 50.550187,21.25364 49.756794,20.927464 48.907238,20.747431 l -3.03e-4,-0.0076 c -0.0095,-0.815731 -0.695479,-1.4767 -1.537676,-1.476798 -0.842092,0 -1.528192,0.660969 -1.537673,1.476798 l -3.02e-4,0.0076 c -0.849557,0.180131 -1.64305,0.506209 -2.352239,0.949627 l -0.0082,-0.0073 c -0.600692,-0.570461 -1.566715,-0.566446 -2.162363,0.01195 -0.595344,0.578395 -0.59938,1.516956 -0.01232,2.100348 l 0.0077,0.0081 c -0.456491,0.68898 -0.792179,1.459751 -0.977619,2.284985 l -0.0079,2.92e-4 c -0.839878,0.0091 -1.52023,0.675662 -1.52023,1.493648 0,0.81808 0.680453,1.484536 1.520432,1.493645 l 0.0077,2.92e-4 c 0.185339,0.825234 0.521128,1.595908 0.97762,2.284888 l -0.0077,0.0081 c -0.587178,0.583391 -0.583042,1.521953 0.01232,2.10025 0.290413,0.282197 0.676619,0.437545 1.087331,0.437545 1.02e-4,0 0,0 1.02e-4,0 0.404964,0 0.785926,-0.151041 1.07493,-0.425593 l 0.0082,-0.0073 c 0.709189,0.443423 1.502682,0.769502 2.352239,0.94963 l 3.02e-4,0.0076 c 0.0095,0.81583 0.695581,1.476797 1.537576,1.476797 9.7e-5,0 9.7e-5,0 1.97e-4,0 0.410714,0 0.796823,-0.155348 1.087236,-0.437444 0.286378,-0.278182 0.445904,-0.646671 0.45034,-1.039255 l 3.03e-4,-0.0076 c 0.849556,-0.180031 1.642949,-0.506208 2.352241,-0.949626 l 0.0083,0.0073 c 0.600589,0.570461 1.566816,0.566349 2.162263,-0.01195 0.595446,-0.578395 0.59948,-1.517054 0.0122,-2.100348 l -0.0076,-0.0079 c 0.456492,-0.688984 0.792181,-1.459658 0.977622,-2.284892 l 0.0077,-2.92e-4 c 0.839978,-0.0091 1.520431,-0.675564 1.520431,-1.493645 0,-0.818181 -0.680352,-1.484636 -1.520229,-1.493842 z m -7.050972,7.027841 c -3.14654,0 -5.697331,-2.477751 -5.697331,-5.534197 0,-3.056442 2.550791,-5.534193 5.697331,-5.534193 3.146537,0 5.697327,2.477751 5.697327,5.534193 0,3.056446 -2.55079,5.534197 -5.697327,5.534197 z"
     id="path14"
     style="fill:#f2f2f2;fill-opacity:1;stroke-width:0.0993836" />
</svg>
